Coordinates
version=1
nRows=4
nColumns=107
inDegrees=yes

Units are S.I. units (second, meters, Newtons, ...)
If the header above contains a line with 'inDegrees', this indicates whether rotational values are in degrees (yes) or radians (no).

endheader
time	sternoclavicular_r2	sternoclavicular_r3	unrotscap_r3	unrotscap_r2	acromioclavicular_r2	acromioclavicular_r3	acromioclavicular_r1	unrothum_r1	unrothum_r3	unrothum_r2	elv_angle	shoulder_elv	shoulder1_r2	shoulder_rot	elbow_flexion	pro_sup	deviation	flexion	proximal_distal_r1	proximal_distal_r3	cmc_flexion	cmc_abduction	mp_flexion	ip_flexion	mcp2_flexion	mcp2_abduction	pm2_flexion	md2_flexion	mcp3_flexion	mcp3_abduction	pm3_flexion	md3_flexion	mcp4_flexion	mcp4_abduction	pm4_flexion	md4_flexion	mcp5_flexion	mcp5_abduction	pm5_flexion	md5_flexion	bicpt_tx	bicpt_ty	bicpt_tz	bicpt2_tx	bicpt2_ty	bicpt2_tz	ptpt_tx	ptpt_ty	ptpt_tz	FCUpt_tx	FCUpt_ty	FCUpt_tz	EDCpt_tx	EDCpt_ty	EDCpt_tz	APLpt_tx	APLpt_ty	APLpt_tz	FPLpt_tx	FPLpt_ty	FPLpt_tz	FPLpt2_tx	FPLpt2_ty	FPLpt2_tz	PEC1pt2_tx	PEC1pt2_ty	PEC1pt2_tz	PEC1pt3_tx	PEC1pt3_ty	PEC1pt3_tz	PEC2pt2_tx	PEC2pt2_ty	PEC2pt2_tz	PEC2pt3_tx	PEC2pt3_ty	PEC2pt3_tz	PEC3pt2_tx	PEC3pt2_ty	PEC3pt2_tz	PEC3pt3_tx	PEC3pt3_ty	PEC3pt3_tz	DELT2pt2a_tx	DELT2pt2a_ty	DELT2pt2a_tz	DELT2pt2_tx	DELT2pt2_ty	DELT2pt2_tz	LAT1pt2_tx	LAT1pt2_ty	LAT1pt2_tz	LAT1pt3_tx	LAT1pt3_ty	LAT1pt3_tz	LAT2pt2_tx	LAT2pt2_ty	LAT2pt2_tz	LAT2pt3_tx	LAT2pt3_ty	LAT2pt3_tz	LAT3pt2_tx	LAT3pt2_ty	LAT3pt2_tz	LAT3pt3_tx	LAT3pt3_ty	LAT3pt3_tz
      0.56666667	     -0.32362877	      0.13707387	     -0.13707387	      0.32362877	     -0.06552824	      0.52957621	      0.23804086	     -0.23804086	     -0.52957621	      0.06552824	     97.49599761	     76.62198851	     -1.70162617	    -19.64317682	     30.70028711	     25.93186533	      0.17090786	     -0.54619036	      0.20803784	     -0.27309518	      6.43937468	     11.43975234	    -38.94164620	    -57.18659962	     10.74116049	     13.12715235	     13.67832263	    -23.98855411	     76.74933263	      9.62094558	     77.81413580	     37.09621052	     71.29933554	     -8.19021338	     71.35974978	     29.99462244	     17.09492486	    -13.84329806	    -15.86983885	      4.92304608	      0.00091547	     -0.03111872	     -0.00486677	      0.01632175	     -0.01853988	     -0.00883308	      0.00563393	     -0.06613896	     -0.00213895	      0.00639442	     -0.18375962	     -0.00021203	     -0.00311182	      0.00083851	      0.00019379	      0.00030905	      0.00012362	      0.00061810	      0.00039558	      0.00118675	      0.00066755	      0.00003724	     -0.00013800	     -0.00016560	      0.00251150	      0.00881154	      0.00612976	     -0.00821559	      0.01983660	     -0.01881497	      0.00251150	      0.00881154	      0.00612976	      0.00055338	      0.01838929	     -0.00966289	      0.00396513	      0.00489998	      0.01600950	      0.00000000	      0.00785222	      0.00000000	     -0.00719396	     -0.03324546	     -0.00647492	      0.01356950	     -0.00042100	     -0.00317532	     -0.00089392	      0.01498387	     -0.00612976	      0.00246893	      0.02162445	     -0.01787848	     -0.00600206	      0.01298318	     -0.00549125	     -0.01251494	      0.02741367	     -0.03069139	     -0.02349743	      0.01451562	     -0.00736423	     -0.01557982	      0.03167045	     -0.03835359
      0.60000000	     -0.32350957	      0.13702338	     -0.13702338	      0.32350957	     -0.06550411	      0.52938115	      0.23795318	     -0.23795318	     -0.52938115	      0.06550411	     97.50319512	     76.59376528	     -1.70175179	    -19.63378162	     30.69372511	     25.93284925	      0.17085119	     -0.54613792	      0.20797678	     -0.27306896	      6.43920054	     11.43936488	    -38.94172981	    -57.18697298	     10.74446374	     13.12680389	     13.67802434	    -23.98805397	     76.75077630	      9.62109431	     77.81373782	     37.09520634	     71.29943245	     -8.19003264	     71.35941205	     29.99412641	     17.09800978	    -13.84310504	    -15.86832051	      4.92308405	      0.00091525	     -0.03111797	     -0.00486665	      0.01632177	     -0.01853810	     -0.00883299	      0.00563386	     -0.06613901	     -0.00213903	      0.00639451	     -0.18375960	     -0.00021205	     -0.00311193	      0.00083854	      0.00019378	      0.00030899	      0.00012360	      0.00061798	      0.00039551	      0.00118653	      0.00066742	      0.00003726	     -0.00013795	     -0.00016553	      0.00251058	      0.00880829	      0.00612751	     -0.00821256	      0.01982929	     -0.01880804	      0.00251058	      0.00880829	      0.00612751	      0.00055318	      0.01838252	     -0.00965933	      0.00396406	      0.00489818	      0.01600692	      0.00000000	      0.00784640	      0.00000000	     -0.00719131	     -0.03323321	     -0.00647009	      0.01356403	     -0.00042072	     -0.00317212	     -0.00089359	      0.01497835	     -0.00612751	      0.00246802	      0.02161648	     -0.01787189	     -0.00599985	      0.01297840	     -0.00548922	     -0.01251033	      0.02740357	     -0.03068008	     -0.02348877	      0.01451028	     -0.00736152	     -0.01557408	      0.03165878	     -0.03833947
      0.63333333	     -0.32382184	      0.13715565	     -0.13715565	      0.32382184	     -0.06556734	      0.52989214	      0.23818287	     -0.23818287	     -0.52989214	      0.06556734	     97.63184983	     76.66769859	     -1.70399723	    -19.41856726	     30.16094471	     24.65090754	      0.14139068	     -0.61963928	      0.17552401	     -0.30981964	      6.58374707	     11.86063200	    -38.88248037	    -59.41190744	     12.83728396	     12.98841231	     10.88767549	    -21.25671817	     77.64750107	      9.57828444	     78.65524651	     28.91060646	     71.88823173	     -8.43991507	     72.39312281	     25.23222359	     17.88107898	    -13.89834187	    -16.21950423	      4.86187227	      0.00089763	     -0.03105691	     -0.00485682	      0.01627624	     -0.01839337	     -0.00894341	      0.00572858	     -0.06607776	     -0.00203576	      0.00627127	     -0.18378091	     -0.00018875	     -0.00295810	      0.00079222	      0.00019277	      0.00031244	      0.00012497	      0.00062487	      0.00039992	      0.00119975	      0.00067486	      0.00003703	     -0.00014051	     -0.00016862	      0.00251300	      0.00881679	      0.00613342	     -0.00822049	      0.01984843	     -0.01882620	      0.00251300	      0.00881679	      0.00613342	      0.00055371	      0.01840026	     -0.00966866	      0.00396685	      0.00490291	      0.01601368	      0.00000000	      0.00786166	      0.00000000	     -0.00719825	     -0.03326529	     -0.00648276	      0.01343848	     -0.00041415	     -0.00309903	     -0.00089446	      0.01499281	     -0.00613342	      0.00247041	      0.02163735	     -0.01788914	     -0.00600564	      0.01299093	     -0.00549452	     -0.01252240	      0.02743002	     -0.03070970	     -0.02351145	      0.01452428	     -0.00736862	     -0.01558911	      0.03168934	     -0.03837647
      0.66666667	     -0.32404717	      0.13725109	     -0.13725109	      0.32404717	     -0.06561296	      0.53026087	      0.23834861	     -0.23834861	     -0.53026087	      0.06561296	     97.58343120	     76.72104814	     -1.70315217	    -19.29735833	     30.25169003	     25.37557201	      0.15380958	     -0.58362871	      0.18937843	     -0.29181435	      7.09646896	     11.52105301	    -39.12363041	    -59.44232757	     12.67842393	     13.04694020	     11.18055398	    -23.36708912	     77.96011844	      9.93669202	     77.40187060	     32.27008293	     72.31314308	     -8.03964788	     70.91201015	     27.19004707	     18.02541731	    -13.88073582	    -15.24970902	      4.81994556	      0.00090063	     -0.03106731	     -0.00485849	      0.01630246	     -0.01841802	     -0.00888128	      0.00567503	     -0.06611239	     -0.00209414	      0.00634087	     -0.18376892	     -0.00020208	     -0.00304506	      0.00081834	      0.00019346	      0.00031190	      0.00012476	      0.00062379	      0.00039923	      0.00119768	      0.00067369	      0.00003627	     -0.00014944	     -0.00017932	      0.00251475	      0.00882293	      0.00613769	     -0.00822621	      0.01986224	     -0.01883930	      0.00251475	      0.00882293	      0.00613769	      0.00055410	      0.01841307	     -0.00967538	      0.00396886	      0.00490632	      0.01601855	      0.00000000	      0.00787269	      0.00000000	     -0.00720326	     -0.03328844	     -0.00649191	      0.01336749	     -0.00041045	     -0.00305819	     -0.00089508	      0.01500324	     -0.00613769	      0.00247212	      0.02165240	     -0.01790159	     -0.00600982	      0.01299997	     -0.00549835	     -0.01253112	      0.02744911	     -0.03073107	     -0.02352781	      0.01453439	     -0.00737375	     -0.01559996	      0.03171139	     -0.03840318
